<svg width="141" height="43" viewBox="0 0 141 43" fill="none" xmlns="http://www.w3.org/2000/svg">
<path d="M9.9 33V5.896H0.44V2.2H23.54V5.896H14.08V33H9.9ZM31.6343 33.528C29.7276 33.528 27.9969 33.044 26.4423 32.076C24.8876 31.108 23.6409 29.744 22.7023 27.984C21.7929 26.1947 21.3383 24.0973 21.3383 21.692C21.3383 19.404 21.7929 17.3507 22.7023 15.532C23.6409 13.7133 24.9169 12.276 26.5303 11.22C28.1729 10.1347 30.0503 9.592 32.1623 9.592C33.4823 9.592 34.6703 9.82667 35.7263 10.296C36.8116 10.736 37.7503 11.2933 38.5423 11.968V10.12H42.1503V27.456C42.1503 28.5707 42.4143 29.304 42.9423 29.656C43.4996 29.9787 44.1009 30.14 44.7463 30.14L43.9103 33.22C41.0943 33.22 39.3929 32.076 38.8063 29.788C38.1316 30.7267 37.2076 31.592 36.0343 32.384C34.8903 33.1467 33.4236 33.528 31.6343 33.528ZM32.5143 30.008C33.6289 30.008 34.6849 29.744 35.6823 29.216C36.6796 28.6587 37.5156 27.9693 38.1903 27.148V14.872C37.3983 14.3147 36.5183 13.8747 35.5503 13.552C34.6116 13.2 33.6143 13.024 32.5583 13.024C31.1503 13.024 29.9036 13.3907 28.8183 14.124C27.7623 14.828 26.9263 15.8253 26.3103 17.116C25.6943 18.3773 25.3863 19.8587 25.3863 21.56C25.3863 23.2027 25.6943 24.6693 26.3103 25.96C26.9263 27.2213 27.7769 28.2187 28.8623 28.952C29.9476 29.656 31.1649 30.008 32.5143 30.008ZM57.9648 33.528C55.7942 33.528 53.8875 33.0293 52.2448 32.032C50.6315 31.0053 49.3848 29.5973 48.5048 27.808C47.6248 25.9893 47.1848 23.9067 47.1848 21.56C47.1848 19.36 47.6248 17.3507 48.5048 15.532C49.4142 13.7133 50.7048 12.276 52.3768 11.22C54.0488 10.1347 56.0142 9.592 58.2728 9.592C59.5635 9.592 60.6928 9.70933 61.6608 9.944C62.6582 10.1787 63.6115 10.516 64.5208 10.956L63.3328 14.3C62.5115 13.8893 61.7195 13.596 60.9568 13.42C60.2235 13.2147 59.4022 13.112 58.4928 13.112C56.4395 13.112 54.7088 13.86 53.3008 15.356C51.9222 16.8227 51.2328 18.8613 51.2328 21.472C51.2328 23.056 51.5262 24.4933 52.1128 25.784C52.6995 27.0747 53.5062 28.1013 54.5328 28.864C55.5888 29.6267 56.8208 30.008 58.2288 30.008C59.3435 30.008 60.2968 29.8907 61.0888 29.656C61.8808 29.392 62.7315 29.0253 63.6408 28.556L64.8728 31.9C63.9635 32.3987 62.9368 32.7947 61.7928 33.088C60.6782 33.3813 59.4022 33.528 57.9648 33.528ZM68.5988 33V0.44H72.5588V13.772C73.3801 12.5693 74.4214 11.572 75.6828 10.78C76.9441 9.988 78.4254 9.592 80.1268 9.592C82.7081 9.592 84.6294 10.3693 85.8908 11.924C87.1814 13.4787 87.8268 15.532 87.8268 18.084V33H83.8668V18.524C83.8668 16.8813 83.4854 15.5613 82.7228 14.564C81.9601 13.5667 80.8894 13.068 79.5108 13.068C78.1614 13.068 76.8708 13.552 75.6388 14.52C74.4361 15.4587 73.4094 16.5733 72.5588 17.864V33H68.5988ZM101.238 33.528C99.9178 33.528 98.6711 33.2493 97.4978 32.692C96.3245 32.1347 95.3711 31.24 94.6378 30.008C93.9045 28.7467 93.5378 27.0747 93.5378 24.992V10.12H97.4978V24.464C97.4978 26.2533 97.8791 27.632 98.6418 28.6C99.4045 29.5387 100.519 30.008 101.986 30.008C103.188 30.008 104.347 29.7733 105.462 29.304C106.606 28.8053 107.618 28.1453 108.498 27.324V10.12H112.458V27.06C112.458 28.3213 112.722 29.1573 113.25 29.568C113.807 29.9493 114.408 30.14 115.054 30.14L114.218 33.22C111.49 33.22 109.803 32.1347 109.158 29.964C108.131 31.02 106.943 31.8853 105.594 32.56C104.244 33.2053 102.792 33.528 101.238 33.528ZM119.624 42.68V15.972C119.624 14.9747 119.375 14.2707 118.876 13.86C118.407 13.42 117.791 13.2 117.028 13.2L117.864 10.12C120.563 10.12 122.249 11.1907 122.924 13.332C123.217 12.892 123.687 12.3787 124.332 11.792C125.007 11.2053 125.828 10.692 126.796 10.252C127.793 9.812 128.923 9.592 130.184 9.592C131.944 9.592 133.587 10.0613 135.112 11C136.667 11.9093 137.913 13.244 138.852 15.004C139.791 16.7347 140.26 18.8467 140.26 21.34C140.26 23.7747 139.791 25.916 138.852 27.764C137.913 29.5827 136.681 31.0053 135.156 32.032C133.66 33.0293 132.032 33.528 130.272 33.528C128.923 33.528 127.661 33.264 126.488 32.736C125.315 32.1787 124.347 31.548 123.584 30.844V42.68H119.624ZM129.48 30.008C131.475 30.008 133.088 29.2307 134.32 27.676C135.581 26.092 136.212 24.024 136.212 21.472C136.212 19.712 135.889 18.2013 135.244 16.94C134.628 15.6787 133.792 14.7107 132.736 14.036C131.709 13.3613 130.565 13.024 129.304 13.024C128.043 13.024 126.899 13.3467 125.872 13.992C124.875 14.608 124.112 15.2827 123.584 16.016V27.28C124.347 28.072 125.227 28.732 126.224 29.26C127.221 29.7587 128.307 30.008 129.48 30.008Z" fill="white"/>
</svg>
