<svg width="119" height="40" viewBox="0 0 119 40" fill="none" xmlns="http://www.w3.org/2000/svg">
<path d="M0.344444 6.99167V2.5H19.2278V6.99167H12.3528V30H7.21944V6.99167H0.344444ZM26.3839 30.4278C24.7135 30.4278 23.1857 30 21.8006 29.1444C20.4154 28.2685 19.3052 27.1074 18.47 25.6611C17.6552 24.1944 17.2478 22.5852 17.2478 20.8333C17.2478 19.0611 17.6552 17.4519 18.47 16.0056C19.3052 14.5593 20.4154 13.4083 21.8006 12.5528C23.1857 11.6769 24.7135 11.2389 26.3839 11.2389C27.5857 11.2389 28.6959 11.4528 29.7144 11.8806C30.733 12.3083 31.5987 12.8991 32.3117 13.6528V11.6667H36.5283V30H32.3117V27.9833C31.5987 28.737 30.733 29.338 29.7144 29.7861C28.6959 30.2139 27.5857 30.4278 26.3839 30.4278ZM26.9644 26.1806C27.9422 26.1806 28.8181 25.9361 29.5922 25.4472C30.3867 24.9583 31.0181 24.3167 31.4867 23.5222C31.9552 22.7074 32.1894 21.8111 32.1894 20.8333C32.1894 19.8556 31.9552 18.9694 31.4867 18.175C31.0181 17.3602 30.3867 16.7083 29.5922 16.2194C28.8181 15.7306 27.9524 15.4861 26.995 15.4861C26.0172 15.4861 25.1311 15.7306 24.3367 16.2194C23.5626 16.7083 22.9413 17.3602 22.4728 18.175C22.0043 18.9694 21.77 19.8556 21.77 20.8333C21.77 21.8111 22.0043 22.7074 22.4728 23.5222C22.9413 24.3167 23.5626 24.9583 24.3367 25.4472C25.1311 25.9361 26.007 26.1806 26.9644 26.1806ZM48.9801 30.55C47.1671 30.55 45.507 30.112 43.9996 29.2361C42.5125 28.3602 41.331 27.1889 40.4551 25.7222C39.5792 24.2352 39.1412 22.6056 39.1412 20.8333C39.1412 19.0407 39.5792 17.4111 40.4551 15.9444C41.331 14.4574 42.5125 13.2861 43.9996 12.4306C45.507 11.5546 47.1671 11.1167 48.9801 11.1167C50.2634 11.1167 51.4755 11.3306 52.6162 11.7583C53.757 12.1861 54.7653 12.8074 55.6412 13.6222L54.3579 18.6944C53.8486 17.8185 53.1458 17.0648 52.2496 16.4333C51.3533 15.7815 50.3144 15.4556 49.1329 15.4556C48.1144 15.4556 47.1977 15.7 46.3829 16.1889C45.5884 16.6778 44.957 17.3296 44.4884 18.1444C44.0403 18.9389 43.8162 19.8352 43.8162 20.8333C43.8162 21.8111 44.0403 22.7074 44.4884 23.5222C44.957 24.337 45.5884 24.9889 46.3829 25.4778C47.1977 25.9463 48.1144 26.1806 49.1329 26.1806C50.3144 26.1806 51.3533 25.8648 52.2496 25.2333C53.1458 24.6019 53.8486 23.838 54.3579 22.9417L55.6412 28.0444C54.7653 28.8593 53.757 29.4806 52.6162 29.9083C51.4755 30.3361 50.2634 30.55 48.9801 30.55ZM57.832 30V0.666666H62.6293V13.3472C63.3015 12.6139 64.0756 12.0639 64.9515 11.6972C65.8478 11.3102 66.795 11.1167 67.7932 11.1167C69.0969 11.1167 70.3089 11.4324 71.4293 12.0639C72.57 12.675 73.4867 13.5815 74.1793 14.7833C74.8922 15.9852 75.2487 17.4315 75.2487 19.1222V30H70.4209V19.7639C70.4209 18.6435 70.0848 17.6454 69.4126 16.7694C68.7404 15.8935 67.783 15.4556 66.5404 15.4556C65.5219 15.4556 64.6154 15.812 63.8209 16.525C63.0265 17.2176 62.6293 18.2769 62.6293 19.7028V30H57.832ZM85.5377 30.55C84.2544 30.55 83.0424 30.2343 81.9016 29.6028C80.7609 28.9713 79.8442 28.0648 79.1516 26.8833C78.459 25.6815 78.1127 24.225 78.1127 22.5139V11.6667H82.91V21.8722C82.91 23.013 83.2461 24.0213 83.9183 24.8972C84.6109 25.7528 85.5683 26.1806 86.7905 26.1806C87.809 26.1806 88.7155 25.8241 89.51 25.1111C90.3044 24.3778 90.7016 23.3287 90.7016 21.9639V11.6667H95.5294V30H91.1294V27.8C90.4775 28.6963 89.6627 29.3787 88.685 29.8472C87.7072 30.3157 86.6581 30.55 85.5377 30.55ZM99.1267 39.1667V11.6667H103.313V13.6222C104.067 12.8685 104.942 12.288 105.941 11.8806C106.939 11.4528 108.029 11.2389 109.21 11.2389C110.921 11.2389 112.469 11.6667 113.855 12.5222C115.24 13.3778 116.34 14.5389 117.155 16.0056C117.99 17.4519 118.407 19.0611 118.407 20.8333C118.407 22.5852 117.99 24.1944 117.155 25.6611C116.34 27.1074 115.24 28.2685 113.855 29.1444C112.469 30 110.921 30.4278 109.21 30.4278C108.171 30.4278 107.204 30.2648 106.307 29.9389C105.431 29.613 104.637 29.1648 103.924 28.5944V39.1667H99.1267ZM108.63 26.1806C109.607 26.1806 110.483 25.9361 111.257 25.4472C112.052 24.9583 112.683 24.3167 113.152 23.5222C113.62 22.7074 113.855 21.8111 113.855 20.8333C113.855 19.8556 113.62 18.9694 113.152 18.175C112.683 17.3602 112.052 16.7083 111.257 16.2194C110.483 15.7306 109.617 15.4861 108.66 15.4861C107.682 15.4861 106.796 15.7306 106.002 16.2194C105.228 16.7083 104.606 17.3602 104.138 18.175C103.669 18.9694 103.435 19.8556 103.435 20.8333C103.435 21.8111 103.669 22.7074 104.138 23.5222C104.606 24.3167 105.228 24.9583 106.002 25.4472C106.796 25.9361 107.672 26.1806 108.63 26.1806Z" fill="#0D0E1D"/>
</svg>
